<svg viewBox="0 0 93.77 72.58" xmlns="http://www.w3.org/2000/svg"><g fill="#fff" transform="translate(-3.12 -13.42)"><path d="m60.86 68.62a28.14 28.14 0 0 0 -2.54 1.78l-1.22 1s.22-2.55.35-3.56c.78-.39 1.68-.88 2.26-1.23a8.56 8.56 0 0 1 -2-3.69c-.35-1.32-.76-5.05-.76-5.05s1.48-.47 2.77-1a20.58 20.58 0 0 0 5.93-3.87c.36-.32 1.45-1.23 1.45-1.23s.3.93.34 1.08c.21.74.9 2.45.9 2.45s-3.64 1.92-5 2.81l-1.8 1.19a10.72 10.72 0 0 0 .32 3 7.46 7.46 0 0 0 1.33 2.52s2.08-.94 2.64-1.22a15.35 15.35 0 0 0 3-2.09 26.11 26.11 0 0 0 .17 3.71c-1.1.35-1.84.67-2.83 1.08a20.24 20.24 0 0 0 -1.83.92 5.63 5.63 0 0 1 .24 2c-.35 2.26-2 4.77-3.49 7.08a35.65 35.65 0 0 1 6.52-1.67 19.7 19.7 0 0 0 4.71-1c3.28-1.39 3.63-3.21 2.86-6.7a1 1 0 0 1 0-.76c.3-.44 1 0 1.36.32a5.9 5.9 0 0 1 2.21 4.51c-.1 1.25-.21 1.74-.22 2.25 0 1.21.9 1.7 1.33 2.26.74 1 1.51 2 .87 3a7.64 7.64 0 0 1 -1.88 1.65c-1.4.85-2.7 1.69-4.79 2.93a2.24 2.24 0 0 1 -2.29.06 2.43 2.43 0 0 1 -.44-1.57c.21-1.43 1.08-1.87.28-3.07s-4.2-1.3-5.67-.88c-4.48 1.29-7.19 3-10.9 5.87-.25.19-2 1.74-2 1.74a13.34 13.34 0 0 0 -.23-2.9 12.82 12.82 0 0 0 -1-2.83s.89-.33 1.2-.49a17.25 17.25 0 0 0 5-3.87c1.32-1.63 3.55-5.52 2.85-6.53z"/><path d="m54.11 66.89a11.87 11.87 0 0 0 0-2.93.78.78 0 0 0 -.75-.73 5.22 5.22 0 0 0 -1.8.39c-.66.26-3.17 1-3.17 1a8.22 8.22 0 0 1 .75 1.75 11.07 11.07 0 0 1 .33 2.75 18 18 0 0 0 2.2-.76c.2-.07.85-.35.85-.35s-.06.85-.06 1.34a7.25 7.25 0 0 0 .21 1.34l-3.2 1s-.07.87 0 2.6c0 1.39.09 3.66.14 4.8 0 .21.1 1.38.1 1.38s-3.35 0-5.09.21a13.07 13.07 0 0 0 1.4-6.8 36.9 36.9 0 0 0 -1.18-9c-.21-.78-1.27-4.14-1.27-4.14s2.28.46 2.69.48a10.66 10.66 0 0 0 2.37-.22 7.81 7.81 0 0 0 4.08-2.25 9.6 9.6 0 0 1 1.64-1.75c.93-.62 1.55-.48 1.9.54a11.11 11.11 0 0 1 .19 2.71 16.4 16.4 0 0 1 -.65 4.56 5.28 5.28 0 0 1 -1.68 2.08z"/><path d="m42.34 72.08c0-.72.65 1.84.65 1.84s-1.67 1.08-1.89 1.21c-.85.53-2 1.08-2.63 1.43-1.08.57-2.41 1.43-2.41 1.43s-.11-.76-.17-1.07a7.89 7.89 0 0 0 -.8-2.1s2.39.32 1.95-6.32a11.5 11.5 0 0 0 -.88-4.35 17.11 17.11 0 0 1 -3.37-1.15c-.6-.31-.33-4.87.61-4.52a27.66 27.66 0 0 0 7.83 2.12c.45 0 2 .1 2 .1a12.23 12.23 0 0 0 -.35 2.24 11.89 11.89 0 0 0 .33 2.29s-.85 0-1.16 0a11.85 11.85 0 0 1 -2.53-.44c-.15 4.85 2.82 8.72 2.82 7.29z"/><path d="m18.77 85.66c.85.52 6.47-2 6.47-2s20.09 3 19.13 2.19c-1.73-1.54-3-4.55-4.83-5.89-.75-.55-4.62-1.31-5.38-.76 1.18 1 1.44 1 1.51 2.06s-4.13-1.73-5-1.58c-2.95.5-4.19.09-2.91-1.69a21.74 21.74 0 0 0 3.85-9.37c.13-1.15-8.46-11.32-8.29-13.72a4.52 4.52 0 0 1 .59-2s-2.07.7-3 1c-2.77 1-3.67 4.48-3.39 7.06 0 1 9.56 8.16 6.75 14.5-1.36 3-5.72 10.06-5.5 10.2z"/><path d="m95.67 41.1a15.47 15.47 0 0 1 -5.32-10.83c-.2-4.83-.69-7 .49-9s2-2 1.88-3.05a7.26 7.26 0 0 1 -2.27-4.83 19 19 0 0 1 -3.45 4.17c-1.67 1.28-4 2.85-4 2.85a2.62 2.62 0 0 1 1.37 2.17 7 7 0 0 1 3.74-3.35 56.22 56.22 0 0 0 -1.45 8c-.1 2.56-1.09 5.91.09 8.77 0 0 .49.83-.69 1.18a39.34 39.34 0 0 0 -6.6 2.46s1.48-4.74-.19-8.28-4.27-3.36-5.49-2.42a16.09 16.09 0 0 0 -2.25 2.06 9.25 9.25 0 0 1 .69-3s-4.22 3.84-8.22 3.25-8.18-2-9.06-3.64c0 0-1 4-1.66 4.53a9.41 9.41 0 0 0 7.57 3.15 15.74 15.74 0 0 0 1.08 6.8 13 13 0 0 0 4.73 5.2s-6 1.88-8.57 2.58c-2.4.65-10.62 2.76-15.16 1.87s-2.76-3-1.49-3.74c0 0-4.34-.89-5.72 2.07s.89 5.51 4 5.91 12.57-1.8 16.28-2.89 9.42-3.37 11.28-4c1.21-.41 1.67.4 1.44.72-.43.59-1.24 1.45-1.24 1.45a3.3 3.3 0 0 1 2.31.2s1.82-3.35 3.3-3.75a.94.94 0 0 1 0-.79 11.23 11.23 0 0 1 -4.09-.62c-1.69-.91-4.83-2.17-5.17-11.07 0 0 4.45.36 5.54-1.37 0 0-2.43 5.64 0 9.61s5.66 2.66 6.89 1.87a7.37 7.37 0 0 0 2.37-2.46 11.48 11.48 0 0 1 4-1.06c2.61-.22 5.51-.13 6 1.06s-2.32 2.12-2.32 2.12 5.81.2 7.88-.29 4.04-1.34 1.48-3.61zm-18.82-3.74c-.49 2.73-1.47 5.52-4 4.94-1.15-.3-1.74-2.6-1.25-5.3s2.18-5.23 4-4.57c1.12.39 1.75 2.2 1.25 4.93z"/><path d="m40.14 33v.93c-.61.37-1 .66-1.23.75a4.18 4.18 0 0 0 .39 2.66s.41-.29 1-.71c.16 1.54.38 3.28.63 4.94a12.68 12.68 0 0 1 3.26-.78s-.69-4.24-.79-5.91c0 0 0-.1 0-.14a11.36 11.36 0 0 1 2.68-.9 28 28 0 0 1 3.22-.57 13.8 13.8 0 0 1 0 6.63c-1.09 4.14-4.43 4.83-8 4a6.09 6.09 0 0 1 -3.45 1.67 8.47 8.47 0 0 0 7.15 1.43c4-1.08 7.2-2.95 7.79-5.71s.78-7-1.09-10.54-6.79-6-7.58-9.16 1.39-1.11 1.87-1 .79-.1.39-1.48a9.53 9.53 0 0 0 -2.16-3.74 12.12 12.12 0 0 1 -1 2.58c-.49.69-2 1.6-1.94 4.22.06 1.58 1.18 2.46.49 4.23a24.64 24.64 0 0 0 -1.63 6.6zm4.11-5.22s3.44 1.18 4.13 2.66c.08.16.16.35.24.55a10.53 10.53 0 0 0 -3 .33 11.85 11.85 0 0 0 -2 .71c.2-1.4.46-2.95.63-4.23z"/><path d="m37.65 41.2a15.83 15.83 0 0 1 -1.59-6.66 5.32 5.32 0 0 0 2.77-2.11 12.82 12.82 0 0 0 1.28-6.3 20.54 20.54 0 0 0 -2.46-6.8 3.84 3.84 0 0 1 .68-4.93l-4 .79a3.33 3.33 0 0 0 -.46 3.55c.84 2 2.66 2.56 3 4.83s.1 7.78-3 7.68-2.76-3.05-1.67-9.06a13.36 13.36 0 0 1 -2.27 2 12 12 0 0 1 -.59 3.64c-.39 1.14-1.12 2.4-.79 4a3.74 3.74 0 0 0 3.94 2.66h1.21s-1.18 4.92 1.09 9a8.72 8.72 0 0 1 2.86-2.29z"/><path d="m30.51 39.88c-.2-1.57.43-3.41-.25-4.89s-3.65-3.44-6.9-5.71a53.18 53.18 0 0 1 -7.36-7.09 15 15 0 0 1 -4.56 2.16s5.07 3.06 6.36 4.63 1.37 3.16 1 5.82.89 7.39.89 7.39l3.54-1.88a3 3 0 0 1 -.78-1.57l4.23-2.37s-.23 3.29.4 4.84a13.55 13.55 0 0 0 1.77 2.95 30.86 30.86 0 0 0 -7.55-.2c-3.16.53-6.41 2.44-8.61 3.35-2.69 1.1-5.39.38-4.69-1.31l.76-1.43s-3.27.36-4.53 1.68a3.35 3.35 0 0 0 0 5c1.57 1.38 4.83.75 7.14-.39 2.61-1.3 7.73-4.7 11.32-5.28 1.46-.23 5.18-.14 5.28.65s-1.36 1.77-1.36 1.77 2.56-.1 3.06.39c0 0 1.57-2.87 3.44-3.56 0 0-2.41-3.37-2.6-4.95zm-8.73-3.41c-.39-.69 0-5.22 0-5.22 3 1.87 3.45 3.25 3.45 3.25a16.37 16.37 0 0 0 -3.45 1.97z"/><path d="m10.75 42.28a21 21 0 0 1 -.69-3.15l3.22-.45a15.4 15.4 0 0 0 .92 2.82 13.63 13.63 0 0 1 3.55-.69 18.27 18.27 0 0 1 -1.75-9.56h-3.28a19.19 19.19 0 0 0 .2 4.24l-3.55.29s-.49-2.42-.69-4.53h-3.68s.69 9.06 2.66 12.22a7.89 7.89 0 0 1 3.09-1.19z"/></g></svg>